<svg width="15" height="13" viewBox="0 0 15 13" fill="none" xmlns="http://www.w3.org/2000/svg">
<path fill-rule="evenodd" clip-rule="evenodd" d="M7.32084 0.0307617C10.8599 0.0307617 13.7387 2.6025 13.7387 5.76419C13.7387 7.25586 13.0979 8.61635 12.0493 9.6374L14.1126 11.4768C14.3057 11.6493 14.3064 11.9284 14.1133 12.1009C14.0171 12.1881 13.8899 12.231 13.7633 12.231C13.6374 12.231 13.5109 12.1881 13.414 12.1021L11.3258 10.2418C10.2273 11.0277 8.83447 11.4982 7.32084 11.4982C3.78174 11.4982 0.902344 8.92588 0.902344 5.76419C0.902344 2.6025 3.78174 0.0307617 7.32084 0.0307617ZM7.32084 0.913915C4.32677 0.913915 1.89092 3.08941 1.89092 5.76419C1.89092 8.43897 4.32677 10.6151 7.32084 10.6151C10.3142 10.6151 12.7501 8.43897 12.7501 5.76419C12.7501 3.08941 10.3142 0.913915 7.32084 0.913915Z" fill="#BABABA"/>
</svg>
