<svg width="20" height="21" viewBox="0 0 20 21" fill="none" xmlns="http://www.w3.org/2000/svg">
<path fill-rule="evenodd" clip-rule="evenodd" d="M9.91214 0C12.5611 0 14.7494 2.0184 15.0192 4.59986L15.0945 4.60075C16.564 4.60075 18.3506 5.57668 18.9536 8.31394L19.7532 14.5029C20.04 16.5004 19.6813 18.1026 18.6851 19.2518C17.6939 20.395 16.1252 21 14.148 21H5.68788C3.51611 21 2.00307 20.468 1.06159 19.3745C0.116068 18.2779 -0.20012 16.6332 0.122149 14.4867L0.908567 8.37981C1.42541 5.57972 3.31545 4.60075 4.77884 4.60075C4.90517 3.43579 5.43047 2.32754 6.26381 1.49683C7.2215 0.545223 8.54199 0 9.89086 0H9.91214ZM15.0945 6.12089H4.77884C4.33192 6.12089 2.83813 6.30128 2.40945 8.61594L1.62709 14.6965C1.37272 16.4021 1.56932 17.6364 2.21285 18.3833C2.84826 19.1211 3.98533 19.4799 5.68788 19.4799H14.148C15.21 19.4799 16.6602 19.2681 17.5358 18.2567C18.231 17.455 18.4702 16.2612 18.2473 14.7076L17.4578 8.57439C17.1213 7.06337 16.2336 6.12089 15.0945 6.12089ZM12.8678 8.94236C13.2874 8.94236 13.6512 9.28288 13.6512 9.70243C13.6512 10.122 13.334 10.4625 12.9144 10.4625H12.8678C12.4482 10.4625 12.1077 10.122 12.1077 9.70243C12.1077 9.28288 12.4482 8.94236 12.8678 8.94236ZM6.95943 8.94236C7.37898 8.94236 7.74281 9.28288 7.74281 9.70243C7.74281 10.122 7.42459 10.4625 7.00503 10.4625H6.95943C6.53987 10.4625 6.19936 10.122 6.19936 9.70243C6.19936 9.28288 6.53987 8.94236 6.95943 8.94236ZM9.9091 1.52014H9.8939C8.94027 1.52014 8.01096 1.90423 7.33703 2.5741C6.78806 3.12061 6.42902 3.83905 6.31287 4.60028L13.4872 4.60056C13.2268 2.85926 11.721 1.52014 9.9091 1.52014Z" fill="#6B7280"/>
</svg>
