<svg width="19" height="19" viewBox="0 0 19 19" fill="none" xmlns="http://www.w3.org/2000/svg">
<path d="M13.9356 0C17.1665 0 18.9905 1.83255 19 5.0635V13.9365C19 17.1665 17.1665 19 13.9356 19H5.0635C1.83255 19 0 17.1665 0 13.9365V5.0635C0 1.83255 1.83255 0 5.0635 0H13.9356ZM9.975 3.9235C9.70805 3.762 9.38505 3.762 9.1295 3.9235C8.87205 4.08405 8.7305 4.3795 8.75805 4.674V14.3545C8.8065 14.763 9.14755 15.067 9.54655 15.067C9.956 15.067 10.2971 14.763 10.3351 14.3545V4.674C10.3731 4.3795 10.2315 4.08405 9.975 3.9235ZM5.5385 7.0395C5.282 6.878 4.95805 6.878 4.7025 7.0395C4.44505 7.201 4.3035 7.49455 4.332 7.79V14.3545C4.36905 14.763 4.71105 15.067 5.11955 15.067C5.529 15.067 5.87005 14.763 5.90805 14.3545V7.79C5.9375 7.49455 5.79405 7.201 5.5385 7.0395ZM14.3346 10.488C14.079 10.3265 13.756 10.3265 13.49 10.488C13.2326 10.6495 13.091 10.9336 13.129 11.2385V14.3545C13.167 14.763 13.508 15.067 13.9175 15.067C14.3165 15.067 14.6575 14.763 14.706 14.3545V11.2385C14.7336 10.9336 14.592 10.6495 14.3346 10.488Z" fill="#67B375"/>
</svg>
