<svg width="19" height="19" viewBox="0 0 19 19" fill="none" xmlns="http://www.w3.org/2000/svg">
<path d="M10.2403 3.49963L10.2338 3.4957C9.81176 3.24036 9.28558 3.23406 8.86365 3.50003C8.45141 3.75777 8.22374 4.2239 8.25805 4.69446V14.3545V14.384L8.26153 14.4134C8.33915 15.0678 8.8885 15.567 9.54655 15.567C10.2085 15.567 10.7705 15.072 10.8329 14.4008L10.8351 14.3777V14.3545V4.70203C10.8829 4.22202 10.6484 3.75512 10.2403 3.49968L10.2403 3.49963ZM5.80561 6.61683L5.80491 6.61638C5.38613 6.35271 4.85499 6.35203 4.43609 6.61638C4.02569 6.8742 3.79637 7.33771 3.832 7.8111V14.3545V14.3771L3.83404 14.3997C3.89506 15.0724 4.45912 15.567 5.11955 15.567C5.78154 15.567 6.34346 15.072 6.4059 14.4008L6.40805 14.3777V14.3545V7.81177C6.445 7.33556 6.21142 6.87329 5.80561 6.61683ZM13.2305 10.0606L13.2305 10.0606L13.2243 10.0644C12.8177 10.3195 12.5809 10.7742 12.629 11.2658V14.3545V14.3777L12.6312 14.4008C12.6936 15.072 13.2555 15.567 13.9175 15.567C14.5755 15.567 15.1249 15.0678 15.2025 14.4134L15.206 14.384V14.3545V11.2584C15.2405 10.7758 15.0105 10.3225 14.6017 10.0653C14.1798 9.79872 13.6527 9.8043 13.2305 10.0606ZM13.9356 0.5C15.4578 0.5 16.5794 0.930044 17.3221 1.6735C18.0649 2.41716 18.4954 3.54133 18.5 5.06433C18.5 5.06454 18.5 5.06476 18.5 5.06497L18.5 13.9365C18.5 15.4583 18.0697 16.5822 17.3259 17.3259C16.582 18.0697 15.4579 18.5 13.9356 18.5H5.0635C3.54119 18.5 2.41732 18.0697 1.67372 17.326C0.930108 16.5823 0.5 15.4584 0.5 13.9365V5.0635C0.5 3.54112 0.930126 2.41727 1.6737 1.6737C2.41727 0.930126 3.54112 0.5 5.0635 0.5H13.9356Z" stroke="#6B7280"/>
</svg>
