<svg width="16" height="16" viewBox="0 0 16 16" fill="none" xmlns="http://www.w3.org/2000/svg">
<path fill-rule="evenodd" clip-rule="evenodd" d="M8.00093 11.3495L7.99054 11.3494C7.90242 11.3478 7.81935 11.3252 7.74601 11.2864C7.72136 11.2734 7.69766 11.2584 7.67515 11.2417C7.648 11.2215 7.62275 11.1988 7.59972 11.1741L5.47313 9.02096C5.259 8.8035 5.25973 8.45216 5.4746 8.23616C5.6902 8.02016 6.0378 8.02016 6.25193 8.23763L7.45093 9.45208V1.88826C7.45093 1.58203 7.69733 1.3335 8.00093 1.3335C8.30453 1.3335 8.55093 1.58203 8.55093 1.88826V9.45208L9.74993 8.23763C9.96406 8.02016 10.3117 8.02016 10.5273 8.23616C10.7421 8.45216 10.7429 8.8035 10.5287 9.02096L8.40213 11.1741C8.37911 11.1988 8.35385 11.2215 8.3267 11.2417C8.23809 11.3075 8.12921 11.3472 8.01131 11.3494L8.00093 11.3495ZM3.91933 15.0002H12.0887C13.8773 15.0002 15.3337 13.5319 15.3337 11.7271V8.1145C15.3337 6.30598 13.8751 4.83402 12.0821 4.83402H11.3986C11.095 4.83402 10.8486 5.08256 10.8486 5.38878C10.8486 5.69501 11.095 5.94354 11.3986 5.94354H12.0821C13.2679 5.94354 14.2337 6.91696 14.2337 8.1145V11.7271C14.2337 12.9194 13.2708 13.8906 12.0887 13.8906H3.91933C2.73206 13.8906 1.76699 12.9172 1.76699 11.7197V8.10636C1.76699 6.91326 2.72913 5.94354 3.91273 5.94354H4.60279C4.90639 5.94354 5.15279 5.69501 5.15279 5.38878C5.15279 5.08256 4.90639 4.83402 4.60279 4.83402H3.91273C2.12266 4.83402 0.666992 6.30154 0.666992 8.10636V11.7197C0.666992 13.529 2.12633 15.0002 3.91933 15.0002Z" fill="#67B375"/>
</svg>
