<svg width="22" height="22" viewBox="0 0 22 22" fill="none" xmlns="http://www.w3.org/2000/svg">
<path d="M19.7384 10.988L20.8424 9.07997C20.9751 8.85041 21.0112 8.57756 20.9427 8.3214C20.8743 8.06524 20.7069 7.84675 20.4774 7.71397L18.5674 6.60997V4.40997C18.5674 4.14476 18.462 3.8904 18.2745 3.70287C18.087 3.51533 17.8326 3.40997 17.5674 3.40997H15.3684L14.2654 1.50097C14.1322 1.27189 13.9141 1.10448 13.6584 1.03497C13.5316 1.00059 13.3992 0.991722 13.2689 1.00889C13.1386 1.02605 13.013 1.06891 12.8994 1.13497L10.9894 2.23897L9.07939 1.13397C8.84971 1.00137 8.57676 0.965436 8.32059 1.03407C8.06442 1.10271 7.846 1.2703 7.71339 1.49997L6.60939 3.40997H4.41039C4.14517 3.40997 3.89082 3.51533 3.70328 3.70287C3.51575 3.8904 3.41039 4.14476 3.41039 4.40997V6.60897L1.50039 7.71297C1.38642 7.77853 1.28653 7.86596 1.20646 7.97023C1.12638 8.07451 1.0677 8.19359 1.03378 8.32061C0.999862 8.44764 0.991379 8.58012 1.00882 8.71043C1.02625 8.84075 1.06927 8.96633 1.13539 9.07997L2.23939 10.988L1.13539 12.896C1.00338 13.1257 0.967562 13.3984 1.03575 13.6545C1.10394 13.9105 1.27059 14.1293 1.49939 14.263L3.40939 15.367V17.566C3.40939 17.8312 3.51475 18.0855 3.70228 18.2731C3.88982 18.4606 4.14417 18.566 4.40939 18.566H6.60939L7.71339 20.476C7.80192 20.6273 7.92833 20.753 8.08017 20.8407C8.23201 20.9283 8.40406 20.975 8.57939 20.976C8.75339 20.976 8.92639 20.93 9.08039 20.841L10.9884 19.737L12.8984 20.841C13.128 20.9734 13.4008 21.0093 13.6569 20.9409C13.9129 20.8725 14.1314 20.7053 14.2644 20.476L15.3674 18.566H17.5664C17.8316 18.566 18.086 18.4606 18.2735 18.2731C18.461 18.0855 18.5664 17.8312 18.5664 17.566V15.367L20.4764 14.263C20.5902 14.1972 20.6899 14.1097 20.7698 14.0054C20.8497 13.9011 20.9083 13.7821 20.9422 13.6551C20.9761 13.5282 20.9846 13.3958 20.9673 13.2655C20.95 13.1353 20.9072 13.0097 20.8414 12.896L19.7384 10.988ZM8.48839 5.97797C8.88635 5.97811 9.26795 6.13632 9.54926 6.41781C9.83056 6.6993 9.98852 7.08102 9.98839 7.47897C9.98826 7.87693 9.83004 8.25854 9.54855 8.53984C9.26706 8.82114 8.88535 8.97911 8.48739 8.97897C8.08943 8.97884 7.70783 8.82062 7.42652 8.53913C7.14522 8.25764 6.98726 7.87593 6.98739 7.47797C6.98752 7.08002 7.14574 6.69841 7.42723 6.41711C7.70872 6.1358 8.09043 5.97784 8.48839 5.97797ZM8.78839 15.578L7.18839 14.379L13.1884 6.37897L14.7884 7.57797L8.78839 15.578ZM13.4884 15.978C13.2913 15.9779 13.0962 15.939 12.9142 15.8636C12.7322 15.7881 12.5668 15.6775 12.4275 15.5381C12.2882 15.3988 12.1778 15.2333 12.1024 15.0512C12.0271 14.8692 11.9883 14.674 11.9884 14.477C11.9885 14.2799 12.0273 14.0848 12.1028 13.9028C12.1783 13.7208 12.2888 13.5554 12.4282 13.4161C12.5676 13.2768 12.7331 13.1663 12.9151 13.091C13.0972 13.0157 13.2923 12.9769 13.4894 12.977C13.8873 12.9771 14.269 13.1353 14.5503 13.4168C14.8316 13.6983 14.9895 14.08 14.9894 14.478C14.9893 14.8759 14.831 15.2575 14.5496 15.5388C14.2681 15.8201 13.8863 15.9781 13.4884 15.978Z" stroke="#6B7280"/>
</svg>
