<svg width="20" height="21" viewBox="0 0 20 21" fill="none" xmlns="http://www.w3.org/2000/svg">
<path d="M10.7038 0C11.496 0 12.2133 0.44 12.6095 1.08952C12.8022 1.40381 12.9307 1.79143 12.8985 2.2C12.8771 2.51429 12.9735 2.82857 13.1448 3.1219C13.6908 4.01238 14.9006 4.34762 15.8427 3.84476C16.9027 3.23714 18.2409 3.60381 18.8512 4.64095L19.5685 5.87714C20.1895 6.91429 19.8469 8.24476 18.7763 8.8419C17.8662 9.37619 17.545 10.56 18.0911 11.461C18.2624 11.7438 18.4551 11.9848 18.7548 12.1314C19.1296 12.3305 19.4186 12.6448 19.622 12.959C20.0182 13.6086 19.9861 14.4048 19.6006 15.1067L18.8512 16.3638C18.4551 17.0343 17.7163 17.4533 16.9562 17.4533C16.5815 17.4533 16.1639 17.3486 15.8213 17.139C15.543 16.961 15.2218 16.8981 14.8792 16.8981C13.8193 16.8981 12.9307 17.7676 12.8985 18.8048C12.8985 20.0095 11.9136 20.9524 10.6823 20.9524H9.2263C7.98438 20.9524 6.99941 20.0095 6.99941 18.8048C6.978 17.7676 6.08938 16.8981 5.02946 16.8981C4.67616 16.8981 4.35497 16.961 4.08732 17.139C3.74472 17.3486 3.31647 17.4533 2.95246 17.4533C2.18161 17.4533 1.44288 17.0343 1.04675 16.3638L0.308021 15.1067C-0.0881094 14.4257 -0.109522 13.6086 0.286608 12.959C0.457908 12.6448 0.779095 12.3305 1.14311 12.1314C1.44288 11.9848 1.63559 11.7438 1.8176 11.461C2.35291 10.56 2.03172 9.37619 1.12169 8.8419C0.0617777 8.24476 -0.280821 6.91429 0.329433 5.87714L1.04675 4.64095C1.66771 3.60381 2.99528 3.23714 4.0659 3.84476C4.99735 4.34762 6.20715 4.01238 6.75317 3.1219C6.92447 2.82857 7.02082 2.51429 6.99941 2.2C6.978 1.79143 7.09576 1.40381 7.29918 1.08952C7.69531 0.44 8.41263 0.0209524 9.19418 0H10.7038ZM9.96503 7.5219C8.28415 7.5219 6.92447 8.84191 6.92447 10.4867C6.92447 12.1314 8.28415 13.441 9.96503 13.441C11.6459 13.441 12.9735 12.1314 12.9735 10.4867C12.9735 8.84191 11.6459 7.5219 9.96503 7.5219Z" fill="#898989"/>
</svg>
