<svg width="67" height="21" viewBox="0 0 67 21" fill="none" xmlns="http://www.w3.org/2000/svg">
<path d="M0.84 10V8H3.58V10C3.58 11.0533 3.88 11.86 4.48 12.42C5.08 12.98 5.92 13.26 7 13.26H8.68V11.32C8.68 9.62667 9.14667 8.32 10.08 7.4C11.0267 6.46667 12.34 6 14.02 6H17.28V11.88C17.28 12.3067 17.3733 12.6467 17.56 12.9C17.7467 13.14 18.02 13.26 18.38 13.26H18.88V16H18.38C17.18 16 16.2333 15.6267 15.54 14.88C14.86 14.12 14.52 13.12 14.52 11.88V8.68H14.06C12.3 8.68 11.42 9.55333 11.42 11.3V16H7C5.09333 16 3.58667 15.4533 2.48 14.36C1.38667 13.2533 0.84 11.8 0.84 10ZM8.6 17.78C8.89333 17.4867 9.24667 17.34 9.66 17.34C10.0733 17.34 10.4267 17.48 10.72 17.76C11.0133 18.0533 11.16 18.4067 11.16 18.82C11.16 19.2333 11.0133 19.5867 10.72 19.88C10.4267 20.1733 10.0733 20.32 9.66 20.32C9.24667 20.32 8.89333 20.1733 8.6 19.88C8.30667 19.5867 8.16 19.2333 8.16 18.82C8.16 18.4067 8.30667 18.06 8.6 17.78ZM4.34 18.82C4.34 18.4067 4.48 18.0533 4.76 17.76C5.05333 17.48 5.40667 17.34 5.82 17.34C6.23333 17.34 6.58667 17.48 6.88 17.76C7.17333 18.0533 7.32 18.4067 7.32 18.82C7.32 19.2333 7.17333 19.5867 6.88 19.88C6.58667 20.1733 6.23333 20.32 5.82 20.32C5.40667 20.32 5.05333 20.1733 4.76 19.88C4.48 19.5867 4.34 19.2333 4.34 18.82ZM18.4719 16V13.26H18.9719C19.3719 13.26 19.6785 13.1267 19.8919 12.86C20.1052 12.5933 20.2119 12.2267 20.2119 11.76V6H22.9519V11.6C22.9519 12.12 23.0785 12.5267 23.3319 12.82C23.5985 13.1133 23.9319 13.26 24.3319 13.26C24.7319 13.26 25.0652 13.1133 25.3319 12.82C25.5985 12.5267 25.7319 12.12 25.7319 11.6V6H28.4719V11.6C28.4719 12.12 28.6052 12.5267 28.8719 12.82C29.1385 13.1133 29.4719 13.26 29.8719 13.26C30.2719 13.26 30.5985 13.1133 30.8519 12.82C31.1185 12.5267 31.2519 12.12 31.2519 11.6V6H33.9919V11.76C33.9919 12.2267 34.0985 12.5933 34.3119 12.86C34.5252 13.1267 34.8319 13.26 35.2319 13.26H35.7319V16H35.2319C34.0719 16 33.1919 15.5733 32.5919 14.72C31.9252 15.5733 31.0185 16 29.8719 16C28.6719 16 27.7519 15.5467 27.1119 14.64C26.4585 15.5467 25.5319 16 24.3319 16C23.1585 16 22.2519 15.5733 21.6119 14.72C21.0119 15.5733 20.1319 16 18.9719 16H18.4719ZM35.3273 13.26H45.0873L45.0673 12.36C45.054 11.2267 44.7073 10.34 44.0273 9.7C43.3607 9.06 42.4473 8.74 41.2873 8.74H36.7073V6L42.9473 0.399999H46.5873L40.2073 6H41.4273C43.2407 6 44.754 6.58667 45.9673 7.76C47.194 8.92 47.814 10.4067 47.8273 12.22V13.26H49.3473V16H35.3273V13.26ZM49.5806 13.26C49.9673 13.26 50.2673 13.1267 50.4806 12.86C50.694 12.5933 50.8006 12.2267 50.8006 11.76V0.399999H53.5406V11.76C53.5406 12.2267 53.6473 12.5933 53.8606 12.86C54.074 13.1267 54.374 13.26 54.7606 13.26H55.3806V16H54.7606C53.654 16 52.7873 15.5933 52.1606 14.78C51.5606 15.5933 50.7006 16 49.5806 16H48.9406V13.26H49.5806ZM54.9758 16V13.26H57.5958C56.7691 12.54 56.3558 11.62 56.3558 10.5C56.3558 9.27333 56.8091 8.22 57.7158 7.34C58.6224 6.44667 59.7558 6 61.1158 6C62.5558 6 63.7491 6.5 64.6958 7.5C65.6424 8.48667 66.1158 9.73333 66.1158 11.24V16H54.9758ZM58.8558 11C58.8558 11.6267 59.0758 12.16 59.5158 12.6C59.9558 13.04 60.4891 13.26 61.1158 13.26H63.3558V11C63.3558 10.3733 63.1358 9.84 62.6958 9.4C62.2691 8.96 61.7424 8.74 61.1158 8.74C60.4891 8.74 59.9558 8.96 59.5158 9.4C59.0758 9.84 58.8558 10.3733 58.8558 11ZM59.9758 2.44C60.2691 2.13333 60.6291 1.98 61.0558 1.98C61.4824 1.98 61.8491 2.13333 62.1558 2.44C62.4624 2.74667 62.6158 3.11333 62.6158 3.54C62.6158 3.96667 62.4624 4.33333 62.1558 4.64C61.8491 4.94667 61.4824 5.1 61.0558 5.1C60.6291 5.1 60.2624 4.94667 59.9558 4.64C59.6624 4.33333 59.5158 3.96667 59.5158 3.54C59.5158 3.11333 59.6691 2.74667 59.9758 2.44Z" fill="black"/>
</svg>
